<svg width="380" height="497" viewBox="0.00 0.00 380.00 497.00" xmlns="http://www.w3.org/2000/svg" xmlns:xlink="http://www.w3.org/1999/xlink">
<g id="graph0" class="graph" transform="scale(1 1) rotate(0) translate(4 493)">
<title>ScrnaBasic</title>
<polygon fill="#FFFFFF" stroke="#000000" points="-4,4 -4,-493 376,-493 376,4 -4,4" stroke-opacity="0"></polygon>
<text text-anchor="middle" x="186" y="-473.8" font-family="Helvetica,sans-Serif" font-size="14.00" fill="#000000">ScrnaBasic</text>
<text text-anchor="middle" x="186" y="-458.8" font-family="Helvetica,sans-Serif" font-size="14.00" fill="#000000"> </text>
<g id="clust1" class="cluster">
<title>cluster_ScrnaBasic</title>
<polygon fill="#EEEEEE" stroke="#EEEEEE" points="8,-8 8,-443 364,-443 364,-8 8,-8"></polygon>
<text text-anchor="middle" x="52.5" y="-427.8" font-family="Helvetica,sans-Serif" font-size="14.00" fill="#000000">ScrnaBasic</text>
</g>
<!-- ScrnaBasicUnsupervised -->
<g id="node1" class="node">
<title>ScrnaBasicUnsupervised</title>
<path fill="#219EBC" stroke="#000000" d="M155.5,-268C155.5,-268 28.5,-268 28.5,-268 22.5,-268 16.5,-262 16.5,-256 16.5,-256 16.5,-244 16.5,-244 16.5,-238 22.5,-232 28.5,-232 28.5,-232 155.5,-232 155.5,-232 161.5,-232 167.5,-238 167.5,-244 167.5,-244 167.5,-256 167.5,-256 167.5,-262 161.5,-268 155.5,-268" stroke-opacity="0"></path>
<text text-anchor="middle" x="92" y="-246.9" font-family="Helvetica,sans-Serif" font-size="12.00" fill="#FFFFFF">ScrnaBasicUnsupervised</text>
</g>
<!-- ScrnaBasicAnnotation -->
<g id="node2" class="node">
<title>ScrnaBasicAnnotation</title>
<path fill="#219EBC" stroke="#000000" d="M140,-196C140,-196 28,-196 28,-196 22,-196 16,-190 16,-184 16,-184 16,-172 16,-172 16,-166 22,-160 28,-160 28,-160 140,-160 140,-160 146,-160 152,-166 152,-172 152,-172 152,-184 152,-184 152,-190 146,-196 140,-196" stroke-opacity="0"></path>
<text text-anchor="middle" x="84" y="-174.9" font-family="Helvetica,sans-Serif" font-size="12.00" fill="#FFFFFF">ScrnaBasicAnnotation</text>
</g>
<!-- ScrnaBasicUnsupervised&#45;&gt;ScrnaBasicAnnotation -->
<g id="edge4" class="edge">
<title>ScrnaBasicUnsupervised-&gt;ScrnaBasicAnnotation</title>
<path fill="none" stroke="#3D314A" d="M89.9813,-231.8314C89.0598,-223.5386 87.9508,-213.557 86.9393,-204.4533"></path>
<polygon fill="#3D314A" stroke="#3D314A" points="89.7123,-204.0551 86.0459,-196.4133 84.1466,-204.6736 89.7123,-204.0551"></polygon>
</g>
<!-- ScrnaBasicUnsupervisedStats -->
<g id="node3" class="node">
<title>ScrnaBasicUnsupervisedStats</title>
<polygon fill="#F26419" stroke="#000000" points="195.5,-124 16.5,-124 16.5,-88 195.5,-88 195.5,-124" stroke-opacity="0"></polygon>
<text text-anchor="middle" x="106" y="-102.9" font-family="Helvetica,sans-Serif" font-size="12.00" fill="#FFFFFF">ScrnaBasicUnsupervisedStats</text>
</g>
<!-- ScrnaBasicAnnotation&#45;&gt;ScrnaBasicUnsupervisedStats -->
<g id="edge9" class="edge">
<title>ScrnaBasicAnnotation-&gt;ScrnaBasicUnsupervisedStats</title>
<path fill="none" stroke="#3D314A" d="M89.5515,-159.8314C92.1113,-151.454 95.1977,-141.3531 98.0021,-132.1749"></path>
<polygon fill="#3D314A" stroke="#3D314A" points="100.7137,-132.8823 100.3737,-124.4133 95.3581,-131.2458 100.7137,-132.8823"></polygon>
</g>
<!-- ScrnaBasicMerge -->
<g id="node9" class="node">
<title>ScrnaBasicMerge</title>
<g id="a_node9"><a xlink:title="Merge the supervised and unsupervised clustering results">
<path fill="#219EBC" stroke="#000000" d="M325.5,-124C325.5,-124 238.5,-124 238.5,-124 232.5,-124 226.5,-118 226.5,-112 226.5,-112 226.5,-100 226.5,-100 226.5,-94 232.5,-88 238.5,-88 238.5,-88 325.5,-88 325.5,-88 331.5,-88 337.5,-94 337.5,-100 337.5,-100 337.5,-112 337.5,-112 337.5,-118 331.5,-124 325.5,-124" stroke-opacity="0"></path>
<text text-anchor="middle" x="282" y="-102.9" font-family="Helvetica,sans-Serif" font-size="12.00" fill="#FFFFFF">ScrnaBasicMerge</text>
</a>
</g>
</g>
<!-- ScrnaBasicAnnotation&#45;&gt;ScrnaBasicMerge -->
<g id="edge2" class="edge">
<title>ScrnaBasicAnnotation-&gt;ScrnaBasicMerge</title>
<path fill="none" stroke="#3D314A" d="M133.7082,-159.9243C161.3644,-149.8675 195.9108,-137.3052 224.7003,-126.8363"></path>
<polygon fill="#3D314A" stroke="#3D314A" points="225.7099,-129.4486 232.2714,-124.0831 223.7961,-124.1857 225.7099,-129.4486"></polygon>
</g>
<!-- ScrnaBasicSupervised -->
<g id="node4" class="node">
<title>ScrnaBasicSupervised</title>
<g id="a_node4"><a xlink:title="Map the seurat object to reference">
<path fill="#219EBC" stroke="#000000" d="M310.5,-268C310.5,-268 197.5,-268 197.5,-268 191.5,-268 185.5,-262 185.5,-256 185.5,-256 185.5,-244 185.5,-244 185.5,-238 191.5,-232 197.5,-232 197.5,-232 310.5,-232 310.5,-232 316.5,-232 322.5,-238 322.5,-244 322.5,-244 322.5,-256 322.5,-256 322.5,-262 316.5,-268 310.5,-268" stroke-opacity="0"></path>
<text text-anchor="middle" x="254" y="-246.9" font-family="Helvetica,sans-Serif" font-size="12.00" fill="#FFFFFF">ScrnaBasicSupervised</text>
</a>
</g>
</g>
<!-- ScrnaBasicSupervisedStats -->
<g id="node6" class="node">
<title>ScrnaBasicSupervisedStats</title>
<g id="a_node6"><a xlink:title="Statistics of the supervised clustering.">
<polygon fill="#F26419" stroke="#000000" points="336,-196 170,-196 170,-160 336,-160 336,-196" stroke-opacity="0"></polygon>
<text text-anchor="middle" x="253" y="-174.9" font-family="Helvetica,sans-Serif" font-size="12.00" fill="#FFFFFF">ScrnaBasicSupervisedStats</text>
</a>
</g>
</g>
<!-- ScrnaBasicSupervised&#45;&gt;ScrnaBasicSupervisedStats -->
<g id="edge3" class="edge">
<title>ScrnaBasicSupervised-&gt;ScrnaBasicSupervisedStats</title>
<path fill="none" stroke="#3D314A" d="M253.7477,-231.8314C253.6325,-223.5386 253.4938,-213.557 253.3674,-204.4533"></path>
<polygon fill="#3D314A" stroke="#3D314A" points="256.1667,-204.3736 253.2557,-196.4133 250.5672,-204.4514 256.1667,-204.3736"></polygon>
</g>
<!-- ScrnaBasicSupervised&#45;&gt;ScrnaBasicMerge -->
<g id="edge7" class="edge">
<title>ScrnaBasicSupervised-&gt;ScrnaBasicMerge</title>
<path fill="none" stroke="#3D314A" d="M304.5441,-231.8142C320.3527,-223.4611 336.0008,-211.8046 345,-196 352.917,-182.096 351.6857,-174.5362 345,-160 339.417,-147.8612 329.6098,-137.43 319.3721,-129.0625"></path>
<polygon fill="#3D314A" stroke="#3D314A" points="321.019,-126.7966 312.9761,-124.1224 317.5959,-131.2285 321.019,-126.7966"></polygon>
</g>
<!-- ScrnaBasicInput -->
<g id="node5" class="node">
<title>ScrnaBasicInput</title>
<g id="a_node5"><a xlink:title="Input file for scrna_basic process group">
<polygon fill="#4C956C" stroke="#000000" points="180,-412 89.4211,-394 180,-376 270.5789,-394 180,-412" stroke-opacity="0"></polygon>
<text text-anchor="middle" x="180" y="-390.9" font-family="Helvetica,sans-Serif" font-size="12.00" fill="#FFFFFF">ScrnaBasicInput</text>
</a>
</g>
</g>
<!-- ScrnaBasicPrepareAndQC -->
<g id="node7" class="node">
<title>ScrnaBasicPrepareAndQC</title>
<path fill="#219EBC" stroke="#000000" d="M248.5,-340C248.5,-340 111.5,-340 111.5,-340 105.5,-340 99.5,-334 99.5,-328 99.5,-328 99.5,-316 99.5,-316 99.5,-310 105.5,-304 111.5,-304 111.5,-304 248.5,-304 248.5,-304 254.5,-304 260.5,-310 260.5,-316 260.5,-316 260.5,-328 260.5,-328 260.5,-334 254.5,-340 248.5,-340" stroke-opacity="0"></path>
<text text-anchor="middle" x="180" y="-318.9" font-family="Helvetica,sans-Serif" font-size="12.00" fill="#FFFFFF">ScrnaBasicPrepareAndQC</text>
</g>
<!-- ScrnaBasicInput&#45;&gt;ScrnaBasicPrepareAndQC -->
<g id="edge8" class="edge">
<title>ScrnaBasicInput-&gt;ScrnaBasicPrepareAndQC</title>
<path fill="none" stroke="#3D314A" d="M180,-375.8314C180,-367.5386 180,-357.557 180,-348.4533"></path>
<polygon fill="#3D314A" stroke="#3D314A" points="182.8001,-348.4132 180,-340.4133 177.2001,-348.4133 182.8001,-348.4132"></polygon>
</g>
<!-- ScrnaBasicPrepareAndQC&#45;&gt;ScrnaBasicUnsupervised -->
<g id="edge5" class="edge">
<title>ScrnaBasicPrepareAndQC-&gt;ScrnaBasicUnsupervised</title>
<path fill="none" stroke="#3D314A" d="M157.7939,-303.8314C146.5381,-294.6221 132.7368,-283.3301 120.6863,-273.4706"></path>
<polygon fill="#3D314A" stroke="#3D314A" points="122.1638,-271.0617 114.199,-268.1628 118.6176,-275.3959 122.1638,-271.0617"></polygon>
</g>
<!-- ScrnaBasicPrepareAndQC&#45;&gt;ScrnaBasicSupervised -->
<g id="edge6" class="edge">
<title>ScrnaBasicPrepareAndQC-&gt;ScrnaBasicSupervised</title>
<path fill="none" stroke="#3D314A" d="M198.6733,-303.8314C208.0507,-294.7074 219.5293,-283.539 229.5956,-273.7449"></path>
<polygon fill="#3D314A" stroke="#3D314A" points="231.5514,-275.7485 235.3326,-268.1628 227.6462,-271.7349 231.5514,-275.7485"></polygon>
</g>
<!-- ScrnaBasicScGSEA -->
<g id="node8" class="node">
<title>ScrnaBasicScGSEA</title>
<polygon fill="#F26419" stroke="#000000" points="211,-52 85,-52 85,-16 211,-16 211,-52" stroke-opacity="0"></polygon>
<text text-anchor="middle" x="148" y="-30.9" font-family="Helvetica,sans-Serif" font-size="12.00" fill="#FFFFFF">ScrnaBasicScGSEA</text>
</g>
<!-- ScrnaBasicMerge&#45;&gt;ScrnaBasicScGSEA -->
<g id="edge10" class="edge">
<title>ScrnaBasicMerge-&gt;ScrnaBasicScGSEA</title>
<path fill="none" stroke="#3D314A" d="M248.1861,-87.8314C230.1739,-78.1531 207.8805,-66.1746 188.8996,-55.9759"></path>
<polygon fill="#3D314A" stroke="#3D314A" points="190.1755,-53.4829 181.803,-52.1628 187.5249,-58.4159 190.1755,-53.4829"></polygon>
</g>
<!-- ScrnaBasicMarkers -->
<g id="node10" class="node">
<title>ScrnaBasicMarkers</title>
<g id="a_node10"><a xlink:title="Find markers between different groups of cells">
<polygon fill="#F26419" stroke="#000000" points="349,-52 229,-52 229,-16 349,-16 349,-52" stroke-opacity="0"></polygon>
<text text-anchor="middle" x="289" y="-30.9" font-family="Helvetica,sans-Serif" font-size="12.00" fill="#FFFFFF">ScrnaBasicMarkers</text>
</a>
</g>
</g>
<!-- ScrnaBasicMerge&#45;&gt;ScrnaBasicMarkers -->
<g id="edge1" class="edge">
<title>ScrnaBasicMerge-&gt;ScrnaBasicMarkers</title>
<path fill="none" stroke="#3D314A" d="M283.7664,-87.8314C284.5726,-79.5386 285.5431,-69.557 286.4281,-60.4533"></path>
<polygon fill="#3D314A" stroke="#3D314A" points="289.2225,-60.6467 287.2098,-52.4133 283.6487,-60.1047 289.2225,-60.6467"></polygon>
</g>
</g>
</svg>